<?xml version="1.0" encoding="UTF-8"?>
<svg width="800" height="500" viewBox="0 0 800 500" xmlns="http://www.w3.org/2000/svg">
  <defs>
    <linearGradient id="futuristicBg" x1="0%" y1="0%" x2="100%" y2="100%">
      <stop offset="0%" style="stop-color:#0a0e27;stop-opacity:1" />
      <stop offset="50%" style="stop-color:#1a1a40;stop-opacity:1" />
      <stop offset="100%" style="stop-color:#2d1b69;stop-opacity:1" />
    </linearGradient>
    <linearGradient id="gpuGlow" x1="0%" y1="0%" x2="100%" y2="100%">
      <stop offset="0%" style="stop-color:#667eea;stop-opacity:1" />
      <stop offset="100%" style="stop-color:#764ba2;stop-opacity:1" />
    </linearGradient>
    <radialGradient id="screenGlow" cx="50%" cy="50%" r="50%">
      <stop offset="0%" style="stop-color:#00ff88;stop-opacity:0.8" />
      <stop offset="100%" style="stop-color:#00ff88;stop-opacity:0" />
    </radialGradient>
  </defs>
  
  <!-- Background -->
  <rect width="800" height="500" fill="url(#futuristicBg)"/>
  
  <!-- AI/GPU Cluster Visualization -->
  <g transform="translate(50, 100)">
    <!-- Main GPU Cluster -->
    <rect x="0" y="0" width="300" height="200" fill="url(#gpuGlow)" rx="15" opacity="0.8"/>
    <rect x="20" y="20" width="260" height="160" fill="rgba(0,0,0,0.3)" rx="10"/>
    
    <!-- GPU Cards -->
    <g transform="translate(30, 40)">
      <rect x="0" y="0" width="60" height="20" fill="#4299e1" rx="3"/>
      <rect x="0" y="25" width="60" height="20" fill="#4299e1" rx="3"/>
      <rect x="0" y="50" width="60" height="20" fill="#4299e1" rx="3"/>
      <rect x="0" y="75" width="60" height="20" fill="#ff6b35" rx="3"/>
      <rect x="0" y="100" width="60" height="20" fill="#4299e1" rx="3"/>
      
      <rect x="80" y="0" width="60" height="20" fill="#4299e1" rx="3"/>
      <rect x="80" y="25" width="60" height="20" fill="#4299e1" rx="3"/>
      <rect x="80" y="50" width="60" height="20" fill="#4299e1" rx="3"/>
      <rect x="80" y="75" width="60" height="20" fill="#4299e1" rx="3"/>
      <rect x="80" y="100" width="60" height="20" fill="#4299e1" rx="3"/>
      
      <rect x="160" y="0" width="60" height="20" fill="#4299e1" rx="3"/>
      <rect x="160" y="25" width="60" height="20" fill="#4299e1" rx="3"/>
      <rect x="160" y="50" width="60" height="20" fill="#4299e1" rx="3"/>
      <rect x="160" y="75" width="60" height="20" fill="#4299e1" rx="3"/>
      <rect x="160" y="100" width="60" height="20" fill="#4299e1" rx="3"/>
    </g>
    
    <!-- Activity LEDs -->
    <circle cx="270" cy="40" r="3" fill="#00ff00"/>
    <circle cx="270" cy="60" r="3" fill="#00ff00"/>
    <circle cx="270" cy="80" r="3" fill="#ffff00"/>
    <circle cx="270" cy="100" r="3" fill="#ff4444"/>
    <circle cx="270" cy="120" r="3" fill="#00ff00"/>
    
    <!-- Cooling Fans -->
    <circle cx="320" cy="100" r="25" fill="none" stroke="#4299e1" stroke-width="3"/>
    <circle cx="320" cy="100" r="15" fill="none" stroke="#4299e1" stroke-width="2"/>
    <circle cx="320" cy="100" r="5" fill="#4299e1"/>
    <line x1="305" y1="85" x2="335" y2="115" stroke="#4299e1" stroke-width="2"/>
    <line x1="335" y1="85" x2="305" y2="115" stroke="#4299e1" stroke-width="2"/>
  </g>
  
  <!-- Monitoring Screens -->
  <g transform="translate(400, 80)">
    <!-- Screen 1 -->
    <rect x="0" y="0" width="120" height="80" fill="#000000" rx="8" stroke="#4299e1" stroke-width="2"/>
    <rect x="5" y="5" width="110" height="70" fill="url(#screenGlow)" opacity="0.3"/>
    <text x="60" y="25" text-anchor="middle" fill="#00ff88" font-size="10" font-weight="bold">GPU CLUSTER A</text>
    <text x="20" y="40" fill="#00ff88" font-size="8">Utilization: 97%</text>
    <text x="20" y="52" fill="#00ff88" font-size="8">Temp: 72°C</text>
    <text x="20" y="64" fill="#00ff88" font-size="8">Power: 2.4kW</text>
    
    <!-- Screen 2 -->
    <rect x="140" y="0" width="120" height="80" fill="#000000" rx="8" stroke="#4299e1" stroke-width="2"/>
    <rect x="145" y="5" width="110" height="70" fill="url(#screenGlow)" opacity="0.3"/>
    <text x="200" y="25" text-anchor="middle" fill="#00ff88" font-size="10" font-weight="bold">AI TRAINING</text>
    <text x="160" y="40" fill="#00ff88" font-size="8">Model: LLM-7B</text>
    <text x="160" y="52" fill="#00ff88" font-size="8">Progress: 73%</text>
    <text x="160" y="64" fill="#00ff88" font-size="8">ETA: 4h 23m</text>
    
    <!-- Screen 3 -->
    <rect x="280" y="0" width="120" height="80" fill="#000000" rx="8" stroke="#4299e1" stroke-width="2"/>
    <rect x="285" y="5" width="110" height="70" fill="url(#screenGlow)" opacity="0.3"/>
    <text x="340" y="25" text-anchor="middle" fill="#00ff88" font-size="10" font-weight="bold">ENERGY STATUS</text>
    <text x="300" y="40" fill="#00ff88" font-size="8">Solar: 1.2MW</text>
    <text x="300" y="52" fill="#00ff88" font-size="8">Grid: 0.3MW</text>
    <text x="300" y="64" fill="#00ff88" font-size="8">Efficiency: 94%</text>
  </g>
  
  <!-- Quantum Processing Unit (Future Tech) -->
  <g transform="translate(450, 200)">
    <circle cx="50" cy="50" r="40" fill="none" stroke="#ff6b35" stroke-width="3"/>
    <circle cx="50" cy="50" r="25" fill="none" stroke="#ff6b35" stroke-width="2"/>
    <circle cx="50" cy="50" r="10" fill="#ff6b35" opacity="0.8"/>
    
    <!-- Quantum Entanglement Visualization -->
    <circle cx="30" cy="30" r="3" fill="#00ff88"/>
    <circle cx="70" cy="70" r="3" fill="#00ff88"/>
    <line x1="30" y1="30" x2="70" y2="70" stroke="#00ff88" stroke-width="1" opacity="0.6"/>
    
    <circle cx="70" cy="30" r="3" fill="#4299e1"/>
    <circle cx="30" cy="70" r="3" fill="#4299e1"/>
    <line x1="70" y1="30" x2="30" y2="70" stroke="#4299e1" stroke-width="1" opacity="0.6"/>
    
    <text x="50" y="120" text-anchor="middle" fill="#ff6b35" font-size="10" font-weight="bold">QUANTUM PROCESSOR</text>
  </g>
  
  <!-- Neural Network Visualization -->
  <g transform="translate(100, 350)">
    <!-- Input Layer -->
    <circle cx="0" cy="0" r="5" fill="#4299e1"/>
    <circle cx="0" cy="20" r="5" fill="#4299e1"/>
    <circle cx="0" cy="40" r="5" fill="#4299e1"/>
    <circle cx="0" cy="60" r="5" fill="#4299e1"/>
    
    <!-- Hidden Layer 1 -->
    <circle cx="50" cy="10" r="5" fill="#00ff88"/>
    <circle cx="50" cy="30" r="5" fill="#00ff88"/>
    <circle cx="50" cy="50" r="5" fill="#00ff88"/>
    
    <!-- Hidden Layer 2 -->
    <circle cx="100" cy="20" r="5" fill="#ff6b35"/>
    <circle cx="100" cy="40" r="5" fill="#ff6b35"/>
    
    <!-- Output Layer -->
    <circle cx="150" cy="30" r="5" fill="#ffff00"/>
    
    <!-- Connections -->
    <line x1="5" y1="0" x2="45" y2="10" stroke="rgba(255,255,255,0.3)" stroke-width="1"/>
    <line x1="5" y1="20" x2="45" y2="30" stroke="rgba(255,255,255,0.3)" stroke-width="1"/>
    <line x1="5" y1="40" x2="45" y2="50" stroke="rgba(255,255,255,0.3)" stroke-width="1"/>
    <line x1="55" y1="10" x2="95" y2="20" stroke="rgba(255,255,255,0.3)" stroke-width="1"/>
    <line x1="55" y1="30" x2="95" y2="40" stroke="rgba(255,255,255,0.3)" stroke-width="1"/>
    <line x1="105" y1="20" x2="145" y2="30" stroke="rgba(255,255,255,0.3)" stroke-width="1"/>
    <line x1="105" y1="40" x2="145" y2="30" stroke="rgba(255,255,255,0.3)" stroke-width="1"/>
    
    <text x="75" y="90" text-anchor="middle" fill="#ffffff" font-size="10" font-weight="bold">NEURAL NETWORK PROCESSING</text>
  </g>
  
  <!-- Liquid Nitrogen Cooling -->
  <g transform="translate(600, 200)">
    <rect x="0" y="0" width="40" height="150" fill="#4299e1" opacity="0.6" rx="20"/>
    <rect x="5" y="5" width="30" height="140" fill="#87ceeb" opacity="0.8" rx="15"/>
    
    <!-- Bubbles -->
    <circle cx="20" cy="120" r="3" fill="white" opacity="0.7">
      <animate attributeName="cy" values="120;20;120" dur="2s" repeatCount="indefinite"/>
    </circle>
    <circle cx="15" cy="100" r="2" fill="white" opacity="0.5">
      <animate attributeName="cy" values="100;30;100" dur="2.5s" repeatCount="indefinite"/>
    </circle>
    <circle cx="25" cy="110" r="2.5" fill="white" opacity="0.6">
      <animate attributeName="cy" values="110;25;110" dur="1.8s" repeatCount="indefinite"/>
    </circle>
    
    <text x="20" y="180" text-anchor="middle" fill="#4299e1" font-size="10" font-weight="bold">LN2 COOLING</text>
    <text x="20" y="195" text-anchor="middle" fill="#4299e1" font-size="8">-196°C</text>
  </g>
  
  <!-- Holographic Interface -->
  <g transform="translate(250, 250)">
    <polygon points="0,0 80,0 90,20 80,40 0,40 -10,20" fill="rgba(0,255,136,0.1)" stroke="#00ff88" stroke-width="2"/>
    <text x="40" y="15" text-anchor="middle" fill="#00ff88" font-size="8" font-weight="bold">HOLOGRAPHIC UI</text>
    <text x="40" y="30" text-anchor="middle" fill="#00ff88" font-size="6">Touch to interact</text>
  </g>
  
  <!-- Energy Flow Visualization -->
  <g opacity="0.7">
    <path d="M 50 450 Q 200 300 400 450 T 750 450" stroke="#ff6b35" stroke-width="4" fill="none">
      <animate attributeName="stroke-dasharray" values="0,1000;1000,0" dur="3s" repeatCount="indefinite"/>
    </path>
    <path d="M 50 470 Q 200 320 400 470 T 750 470" stroke="#00ff88" stroke-width="4" fill="none">
      <animate attributeName="stroke-dasharray" values="0,1000;1000,0" dur="4s" repeatCount="indefinite"/>
    </path>
  </g>
  
  <!-- Ambient Lighting -->
  <ellipse cx="400" cy="100" rx="300" ry="50" fill="url(#screenGlow)" opacity="0.2"/>
  <ellipse cx="200" cy="350" rx="200" ry="40" fill="rgba(255,107,53,0.1)"/>
  <ellipse cx="600" cy="300" rx="150" ry="30" fill="rgba(102,126,234,0.1)"/>
</svg>