<?xml version="1.0" encoding="UTF-8"?>
<svg width="80" height="80" viewBox="0 0 80 80" xmlns="http://www.w3.org/2000/svg">
  <defs>
    <linearGradient id="datacenterGradient" x1="0%" y1="0%" x2="100%" y2="100%">
      <stop offset="0%" style="stop-color:#38a169;stop-opacity:1" />
      <stop offset="100%" style="stop-color:#2c7a7b;stop-opacity:1" />
    </linearGradient>
  </defs>
  
  <!-- Building Structure -->
  <rect x="15" y="20" width="50" height="45" rx="3" fill="url(#datacenterGradient)" stroke="#333" stroke-width="2"/>
  
  <!-- Server Racks -->
  <rect x="20" y="25" width="8" height="35" fill="#2d3748" stroke="#333" stroke-width="1"/>
  <rect x="32" y="25" width="8" height="35" fill="#2d3748" stroke="#333" stroke-width="1"/>
  <rect x="44" y="25" width="8" height="35" fill="#2d3748" stroke="#333" stroke-width="1"/>
  <rect x="56" y="25" width="8" height="35" fill="#2d3748" stroke="#333" stroke-width="1"/>
  
  <!-- LED Status Lights -->
  <circle cx="24" cy="30" r="1.5" fill="#00ff00"/>
  <circle cx="24" cy="35" r="1.5" fill="#00ff00"/>
  <circle cx="36" cy="30" r="1.5" fill="#00ff00"/>
  <circle cx="36" cy="35" r="1.5" fill="#ffff00"/>
  <circle cx="48" cy="30" r="1.5" fill="#00ff00"/>
  <circle cx="48" cy="35" r="1.5" fill="#00ff00"/>
  <circle cx="60" cy="30" r="1.5" fill="#ff0000"/>
  <circle cx="60" cy="35" r="1.5" fill="#00ff00"/>
  
  <!-- Cooling Vents -->
  <rect x="15" y="15" width="50" height="3" rx="1" fill="#4a5568"/>
  <rect x="15" y="67" width="50" height="3" rx="1" fill="#4a5568"/>
</svg>