<?xml version="1.0" encoding="UTF-8"?>
<svg width="60" height="60" viewBox="0 0 60 60" xmlns="http://www.w3.org/2000/svg">
  <!-- Solar Panel Array -->
  <rect x="5" y="25" width="50" height="30" fill="#1e40af" stroke="#1e3a8a" stroke-width="2"/>
  
  <!-- Panel Grid -->
  <line x1="15" y1="25" x2="15" y2="55" stroke="#1e3a8a" stroke-width="1"/>
  <line x1="25" y1="25" x2="25" y2="55" stroke="#1e3a8a" stroke-width="1"/>
  <line x1="35" y1="25" x2="35" y2="55" stroke="#1e3a8a" stroke-width="1"/>
  <line x1="45" y1="25" x2="45" y2="55" stroke="#1e3a8a" stroke-width="1"/>
  
  <line x1="5" y1="35" x2="55" y2="35" stroke="#1e3a8a" stroke-width="1"/>
  <line x1="5" y1="45" x2="55" y2="45" stroke="#1e3a8a" stroke-width="1"/>
  
  <!-- Sun -->
  <circle cx="45" cy="15" r="8" fill="#fbbf24" stroke="#f59e0b" stroke-width="2"/>
  
  <!-- Sun Rays -->
  <line x1="45" y1="3" x2="45" y2="7" stroke="#fbbf24" stroke-width="2"/>
  <line x1="57" y1="15" x2="53" y2="15" stroke="#fbbf24" stroke-width="2"/>
  <line x1="54" y1="6" x2="51" y2="9" stroke="#fbbf24" stroke-width="2"/>
  <line x1="54" y1="24" x2="51" y2="21" stroke="#fbbf24" stroke-width="2"/>
  
  <!-- Support Structure -->
  <line x1="10" y1="55" x2="15" y2="25" stroke="#6b7280" stroke-width="2"/>
  <line x1="50" y1="55" x2="45" y2="25" stroke="#6b7280" stroke-width="2"/>
  
  <!-- Ground -->
  <rect x="0" y="55" width="60" height="5" fill="#22c55e"/>
</svg>