<?xml version="1.0" encoding="UTF-8"?>
<svg width="400" height="200" viewBox="0 0 400 200" xmlns="http://www.w3.org/2000/svg">
  <defs>
    <linearGradient id="aiGradient" x1="0%" y1="0%" x2="100%" y2="100%">
      <stop offset="0%" style="stop-color:#667eea;stop-opacity:1" />
      <stop offset="100%" style="stop-color:#764ba2;stop-opacity:1" />
    </linearGradient>
  </defs>
  
  <!-- Background -->
  <rect width="400" height="200" fill="url(#aiGradient)"/>
  
  <!-- Neural Network Nodes -->
  <circle cx="80" cy="50" r="8" fill="white" opacity="0.8"/>
  <circle cx="150" cy="30" r="8" fill="white" opacity="0.8"/>
  <circle cx="150" cy="70" r="8" fill="white" opacity="0.8"/>
  <circle cx="220" cy="20" r="8" fill="white" opacity="0.8"/>
  <circle cx="220" cy="50" r="8" fill="white" opacity="0.8"/>
  <circle cx="220" cy="80" r="8" fill="white" opacity="0.8"/>
  <circle cx="300" cy="40" r="8" fill="white" opacity="0.8"/>
  <circle cx="300" cy="60" r="8" fill="white" opacity="0.8"/>
  
  <!-- Neural Network Connections -->
  <line x1="88" y1="50" x2="142" y2="30" stroke="white" stroke-width="2" opacity="0.6"/>
  <line x1="88" y1="50" x2="142" y2="70" stroke="white" stroke-width="2" opacity="0.6"/>
  <line x1="158" y1="30" x2="212" y2="20" stroke="white" stroke-width="2" opacity="0.6"/>
  <line x1="158" y1="30" x2="212" y2="50" stroke="white" stroke-width="2" opacity="0.6"/>
  <line x1="158" y1="70" x2="212" y2="50" stroke="white" stroke-width="2" opacity="0.6"/>
  <line x1="158" y1="70" x2="212" y2="80" stroke="white" stroke-width="2" opacity="0.6"/>
  <line x1="228" y1="50" x2="292" y2="40" stroke="white" stroke-width="2" opacity="0.6"/>
  <line x1="228" y1="50" x2="292" y2="60" stroke="white" stroke-width="2" opacity="0.6"/>
  
  <!-- AI Text -->
  <text x="200" y="130" text-anchor="middle" fill="white" font-size="24" font-weight="bold">AI COMPUTING</text>
  <text x="200" y="160" text-anchor="middle" fill="white" font-size="14" opacity="0.8">Accelerating India's Future</text>
</svg>